<?xml version="1.0" encoding="utf-8"?>
<!-- Generator: Adobe Illustrator 18.0.0, SVG Export Plug-In . SVG Version: 6.00 Build 0)  -->
<!DOCTYPE svg PUBLIC "-//W3C//DTD SVG 1.1 Tiny//EN" "http://www.w3.org/Graphics/SVG/1.1/DTD/svg11-tiny.dtd">
<svg version="1.1" baseProfile="tiny" id="Layer_1" xmlns="http://www.w3.org/2000/svg" xmlns:xlink="http://www.w3.org/1999/xlink"
	 x="0px" y="0px" width="96px" height="51px" viewBox="0 0 96 51" xml:space="preserve">
<path d="M86.7,45L73.9,28.5c-2.3,1.8-4.6,3.4-6.8,5c-6.3,4.5-11.8,7.9-15.8,9.3c-1.1,0.4-2.1,0.6-3.2,0.6
	c-1.1,0-2.1-0.3-3.2-0.6c-1.1-0.4-2.3-0.9-3.5-1.6c-2.5-1.3-5.5-3.1-8.6-5.2c-3.3-2.2-6.9-4.8-10.6-7.6L9.1,45l10.4-18.5
	c-2.5-1.9-5.1-3.9-7.6-5.9C7.7,17.2,3.7,13.8,0,10.8v37.6C0,49.8,1.2,51,2.6,51h90.8c1.4,0,2.6-1.2,2.6-2.6V10.9
	c-5.8,4.9-12.7,10.5-19.4,15.6L86.7,45z M93.4,0H2.6C1.2,0,0,1.2,0,2.6v2.3c0.9,0.8,1.9,1.5,2.8,2.4c8.6,7.2,19.6,16,28.9,22.6
	c6.1,4.4,11.6,7.7,14.7,8.7c0.8,0.3,1.4,0.4,1.7,0.4c0.5,0,2-0.4,3.8-1.3c1.9-0.9,4.2-2.2,6.7-3.9C63.8,30.5,70,26,76.1,21.2
	C83.2,15.7,90.3,9.8,96,5V2.6C96,1.2,94.8,0,93.4,0z"/>
</svg>
