<?xml version="1.0" encoding="utf-8"?>
<!-- Generator: Adobe Illustrator 18.0.0, SVG Export Plug-In . SVG Version: 6.00 Build 0)  -->
<!DOCTYPE svg PUBLIC "-//W3C//DTD SVG 1.1 Tiny//EN" "http://www.w3.org/Graphics/SVG/1.1/DTD/svg11-tiny.dtd">
<svg version="1.1" baseProfile="tiny" id="Layer_1" xmlns="http://www.w3.org/2000/svg" xmlns:xlink="http://www.w3.org/1999/xlink"
	 x="0px" y="0px" width="96px" height="93.6px" viewBox="0 0 96 93.6" xml:space="preserve">
<path d="M48,0C21.5,0,0,21.5,0,48c0,21.2,13.8,39.2,32.8,45.5c2.4,0.4,3.3-1,3.3-2.3c0-1.1,0-4.9-0.1-8.9
	c-13.3,2.9-16.2-5.7-16.2-5.7c-2.2-5.5-5.3-7-5.3-7c-4.4-3,0.3-2.9,0.3-2.9c4.8,0.3,7.4,4.9,7.4,4.9c4.3,7.3,11.2,5.2,14,4
	c0.4-3.1,1.7-5.2,3-6.4C28.6,68,17.4,63.9,17.4,45.5c0-5.2,1.9-9.5,4.9-12.9c-0.5-1.2-2.1-6.1,0.5-12.7c0,0,4-1.3,13.2,4.9
	c3.8-1.1,7.9-1.6,12-1.6c4.1,0,8.2,0.6,12,1.6c9.2-6.2,13.2-4.9,13.2-4.9c2.6,6.6,1,11.5,0.5,12.7c3.1,3.4,4.9,7.6,4.9,12.9
	c0,18.4-11.2,22.5-21.9,23.7c1.7,1.5,3.3,4.4,3.3,8.9c0,6.4-0.1,11.6-0.1,13.2c0,1.3,0.9,2.8,3.3,2.3C82.3,87.2,96,69.2,96,48
	C96,21.5,74.5,0,48,0z"/>
</svg>
